<?xml version="1.0" standalone="no"?><!DOCTYPE svg PUBLIC "-//W3C//DTD SVG 1.1//EN" "http://www.w3.org/Graphics/SVG/1.1/DTD/svg11.dtd"><svg t="1514184581181" class="icon" style="" viewBox="0 0 1024 1024" version="1.1" xmlns="http://www.w3.org/2000/svg" p-id="13235" xmlns:xlink="http://www.w3.org/1999/xlink" width="200" height="200"><defs><style type="text/css"></style></defs><path d="M508.2112 63.0016c-247.7568 0-448.60416 200.85248-448.60416 448.60928s200.84736 448.60416 448.60416 448.60416c247.75168 0 448.60416-200.84736 448.60416-448.60416S755.96288 63.0016 508.2112 63.0016zM508.2112 903.47008c-216.4224 0-391.86432-175.44704-391.86432-391.86432 0-216.4224 175.44192-391.86432 391.86432-391.86432 216.41216 0 391.86432 175.44192 391.86432 391.86432C900.07552 728.02304 724.62336 903.47008 508.2112 903.47008z" p-id="13236" fill="#fb7299"></path><path d="M272.57856 578.38592l74.72128 0L347.29984 445.65504 511.5904 445.65504 511.5904 363.04384l-136.448 0c-20.88448 37.59104-44.24704 72.24832-70.08256 103.95648-8.04352-8.65792-17.63328-17.32096-28.7744-25.98912 43.93472-49.50016 76.88704-105.0368 98.85696-166.60992l38.05696 10.67008c-6.49728 15.31904-13.30688 30.16704-20.41856 44.55424l319.29856 0 0 33.41312-162.89792 0 0 82.6112 155.008 0 0 32.4864-155.008 0 0 100.24448 183.78752 0 0 33.41312-183.78752 0 0 125.312L511.5904 737.10592l0-125.312L272.57856 611.79392 272.57856 578.38592zM383.96416 578.38592 511.5904 578.38592 511.5904 478.14144 383.96416 478.14144 383.96416 578.38592z" p-id="13237" fill="#fb7299"></path></svg>