<?xml version="1.0" standalone="no"?><!DOCTYPE svg PUBLIC "-//W3C//DTD SVG 1.1//EN" "http://www.w3.org/Graphics/SVG/1.1/DTD/svg11.dtd"><svg t="1514184634752" class="icon" style="" viewBox="0 0 1024 1024" version="1.1" xmlns="http://www.w3.org/2000/svg" p-id="13388" xmlns:xlink="http://www.w3.org/1999/xlink" width="200" height="200"><defs><style type="text/css"></style></defs><path d="M919.344 579.595c-18.872 0-34.187 15.25-34.187 34.037 0 18.785 15.315 34.035 34.187 34.035 18.874 0 34.189-15.249 34.189-34.035-0.001-18.825-15.316-34.037-34.189-34.037z m-27.72-136.941c0 18.824 15.315 34.036 34.189 34.036 18.872 0 34.188-15.25 34.188-34.036s-15.315-34.036-34.188-34.036c-18.874-0.001-34.189 15.249-34.189 34.036z m-277.413 440.9c-19.336 0-35.039 15.44-35.039 34.454 0 19.014 15.703 34.454 35.039 34.454s35.039-15.44 35.039-34.454c0-19.014-15.663-34.454-35.039-34.454z m243.187-165.19c-18.872 0-34.188 15.44-34.188 34.454 0 19.015 15.315 34.454 34.188 34.454 18.874 0 34.189-15.44 34.189-34.454s-15.278-34.454-34.189-34.454zM753.519 821.309c-18.873 0-34.188 15.63-34.188 34.873 0 19.281 15.315 34.872 34.188 34.872 18.874 0 34.189-15.63 34.189-34.872 0.038-19.243-15.277-34.873-34.189-34.873zM512 896c-51.868 0-102.15-10.144-149.451-30.15-45.719-19.337-86.791-47.034-122.077-82.321-35.288-35.286-62.984-76.359-82.321-122.078C138.144 614.15 128 563.867 128 512c0-51.867 10.144-102.15 30.15-149.451 19.338-45.719 47.034-86.791 82.321-122.077 35.286-35.287 76.359-62.984 122.077-82.321C409.85 138.144 460.132 128 512 128s102.15 10.144 149.451 30.15c45.719 19.337 86.791 47.034 122.078 82.321 35.287 35.286 62.984 76.359 82.321 122.077 0.44 1.039 0.868 2.083 1.298 3.124l59.175-24.38C859.195 178.548 698.977 64 512 64 264.576 64 64 264.576 64 512s200.576 448 448 448v-64z" p-id="13389" fill="#fb7299"></path><path d="M713.649 624.173H563.364v94.038h-54.05v-94.038H311.571v-50.095h69.43v-115.13h128.314v-52.732h-94.038c-18.017 31.2-39.109 59.323-59.762 79.976-10.107-8.789-32.518-26.366-45.261-33.836 39.549-33.397 73.385-89.644 92.28-146.33l53.171 13.622c-3.955 12.304-8.789 24.169-14.501 36.033h248.278v50.534H563.364v52.732h116.01v48.337h-116.01v66.793h150.285v50.096z m-204.334-50.095v-66.793h-76.021v66.793h76.021z" p-id="13390" fill="#fb7299"></path></svg>