<?xml version="1.0" standalone="no"?><!DOCTYPE svg PUBLIC "-//W3C//DTD SVG 1.1//EN" "http://www.w3.org/Graphics/SVG/1.1/DTD/svg11.dtd"><svg t="1513833732672" class="icon" style="" viewBox="0 0 1024 1024" version="1.1" xmlns="http://www.w3.org/2000/svg" p-id="1719" xmlns:xlink="http://www.w3.org/1999/xlink" width="200" height="200"><defs><style type="text/css"></style></defs><path d="M472.016 426.887c0 25.041-20.299 45.34-45.34 45.34H109.352c-25.041 0-45.34-20.299-45.34-45.34V109.563c0-25.041 20.299-45.34 45.34-45.34h317.324c25.041 0 45.34 20.299 45.34 45.34v317.324zM472.016 913.883c0 25.041-20.299 45.34-45.34 45.34H109.352c-25.041 0-45.34-20.299-45.34-45.34V596.56c0-25.041 20.299-45.34 45.34-45.34h317.324c25.041 0 45.34 20.299 45.34 45.34v317.323zM959.705 913.883c0 25.041-20.299 45.34-45.34 45.34H597.042c-25.041 0-45.34-20.299-45.34-45.34V596.56c0-25.041 20.299-45.34 45.34-45.34h317.324c25.041 0 45.34 20.299 45.34 45.34v317.323zM914.365 104.223a5.347 5.347 0 0 1 5.34 5.34v317.324a5.347 5.347 0 0 1-5.34 5.34H597.042a5.346 5.346 0 0 1-5.34-5.34V109.563a5.346 5.346 0 0 1 5.34-5.34h317.323m0-40H597.042c-25.041 0-45.34 20.3-45.34 45.34v317.324c0 25.04 20.299 45.34 45.34 45.34h317.324c25.041 0 45.34-20.3 45.34-45.34V109.563c-0.001-25.04-20.3-45.34-45.341-45.34z" fill="" p-id="1720"></path></svg>