<?xml version="1.0" standalone="no"?><!DOCTYPE svg PUBLIC "-//W3C//DTD SVG 1.1//EN" "http://www.w3.org/Graphics/SVG/1.1/DTD/svg11.dtd"><svg t="1513833882739" class="icon" style="" viewBox="0 0 1024 1024" version="1.1" xmlns="http://www.w3.org/2000/svg" p-id="4697" xmlns:xlink="http://www.w3.org/1999/xlink" width="200" height="200"><defs><style type="text/css"></style></defs><path d="M855.299679 511.574296c0-47.313933-85.870531-85.870531-193.391139-85.870531s-193.391139 38.678228-193.391139 85.870531v255.665519c0 58.017342 96.69557 90.249198 193.391139 90.249198 92.316902 0 184.755434-27.974819 193.391139-81.613493V511.574296zM662.03017 468.639031c92.316902 0 143.887873 30.042523 150.334244 42.935265-6.446371 12.892743-58.017342 42.935265-150.334244 42.935266s-143.887873-30.042523-150.334244-42.935266c6.324742-12.892743 57.895712-42.935265 150.334244-42.935265z m-150.455874 96.695569c34.42119 19.339114 90.249198 32.231857 150.334244 32.231857 60.206675 0 113.84535-12.892743 150.334244-32.231857v72.977789c0 17.14978-58.017342 47.313933-150.334244 47.313932-90.249198 0-146.077206-27.974819-150.334244-45.124599v-75.167122zM662.03017 812.364414c-90.249198 0-146.077206-27.974819-150.334244-45.124599v-70.910085c36.488894 21.528448 94.506236 30.042523 150.334244 30.042523 55.828008 0 113.84535-10.703409 150.334244-32.231856v68.72075c0 19.339114-58.017342 49.503266-150.334244 49.503267z" fill="" p-id="4698"></path><path d="M425.703765 382.64687c90.249198 0 167.605654-19.339114 214.797957-47.313933V361.240052c0 12.892743 8.635705 21.528448 19.339114 21.528448h4.257038c10.703409 0 19.339114-10.703409 19.339114-21.528448V275.247892c0-60.206675-116.034683-107.398979-257.733223-107.398979s-257.854852 47.313933-257.854852 107.398979v367.321534C174.295284 709.222473 266.733816 752.157738 404.175318 752.157738c12.892743 0 21.528448-8.635705 21.528447-21.528447S417.06806 709.100843 404.175318 709.100843c-126.738092 0-193.391139-38.678228-193.391139-75.167122V535.170448c40.867561 27.974819 107.398979 42.935265 193.391139 42.935265 12.892743 0 21.528448-8.635705 21.528447-21.528447s-8.635705-21.528448-21.528447-21.528448c-124.548759 0-191.201805-34.42119-193.391139-68.720751V333.265233c47.313933 30.042523 124.670388 49.381637 214.919586 49.381637z m0-171.862691c141.820169 0 214.797957 47.313933 214.797957 64.463713 0 17.14978-72.977788 64.463713-214.797957 64.463713s-214.797957-47.313933-214.797957-64.463713c0-17.14978 72.977788-64.463713 214.797957-64.463713z" fill="" p-id="4699"></path></svg>