<?xml version="1.0" standalone="no"?><!DOCTYPE svg PUBLIC "-//W3C//DTD SVG 1.1//EN" "http://www.w3.org/Graphics/SVG/1.1/DTD/svg11.dtd"><svg t="1513833858752" class="icon" style="" viewBox="0 0 1024 1024" version="1.1" xmlns="http://www.w3.org/2000/svg" p-id="4242" xmlns:xlink="http://www.w3.org/1999/xlink" width="200" height="200"><defs><style type="text/css"></style></defs><path d="M256.000712 398.249356C220.653727 398.249356 191.999822 427.354272 191.999822 463.271214 191.999822 499.193736 220.653727 528.300047 256.000712 528.300047 291.343424 528.300047 319.99733 499.193736 319.99733 463.271214 319.99733 427.354272 291.343424 398.249356 256.000712 398.249356L256.000712 398.249356 256.000712 398.249356ZM512.002849 398.249356C476.655863 398.249356 448.000534 427.354272 448.000534 463.271214 448.000534 499.193736 476.660136 528.300047 512.002849 528.300047 547.344137 528.300047 575.999466 499.193736 575.999466 463.271214 575.999466 427.354272 547.344137 398.249356 512.002849 398.249356L512.002849 398.249356 512.002849 398.249356ZM768.003562 398.249356C732.656574 398.249356 704.00267 427.354272 704.00267 463.271214 704.00267 499.193736 732.656574 528.300047 768.003562 528.300047 803.346271 528.300047 832.000176 499.193736 832.000176 463.271214 832.000176 427.354272 803.346271 398.249356 768.003562 398.249356L768.003562 398.249356 768.003562 398.249356ZM127.997507 73.142857C57.313507 73.142857 0 131.37501 0 203.193548L0 690.849809C0 762.673927 58.594009 828.873209 130.907481 828.873209L325.968258 828.873209C359.969221 864.347919 486.312565 990.610739 486.312565 990.610739 500.499343 1004.805435 522.99445 1004.477791 536.759928 989.742775 536.759928 989.742775 626.340718 892.625569 693.469508 828.873209L893.09252 828.873209C965.405989 828.873209 1024 762.668347 1024 690.849809L1024 203.193548C1024 131.37501 966.692191 73.142857 896.002494 73.142857L127.997507 73.142857 127.997507 73.142857ZM893.09252 764.433086 696.781152 764.433086C672.999992 764.433086 651.623156 788.383291 651.623156 788.383291L537.611356 905.884518C523.468162 920.460581 500.404798 920.008528 487.052412 905.884518L375.970511 788.383291C375.970511 788.383291 349.719506 764.433086 327.218848 764.433086L130.907481 764.433086C94.748608 764.433086 64.002315 726.755591 64.002315 690.849809L64.002315 203.193548C64.002315 167.276606 92.656219 138.164715 127.997507 138.164715L896.002494 138.164715C931.343777 138.164715 960.003387 167.276606 960.003387 203.193548L960.003387 690.849809C960.003387 726.755591 929.251394 764.433086 893.09252 764.433086L893.09252 764.433086Z" p-id="4243"></path></svg>