<?xml version="1.0" standalone="no"?><!DOCTYPE svg PUBLIC "-//W3C//DTD SVG 1.1//EN" "http://www.w3.org/Graphics/SVG/1.1/DTD/svg11.dtd"><svg t="1513833803985" class="icon" style="" viewBox="0 0 1082 1024" version="1.1" xmlns="http://www.w3.org/2000/svg" p-id="3509" xmlns:xlink="http://www.w3.org/1999/xlink" width="211.328125" height="200"><defs><style type="text/css"></style></defs><path d="M542.926174 749.100671h-309.261744c-34.362416 0-65.288591-30.926174-65.288591-68.724832V319.57047c0-34.362416 30.926174-68.724832 65.288591-68.724832H721.610738c34.362416 0 65.288591 30.926174 65.288591 68.724832v30.926174c0 13.744966 10.308725 24.053691 24.053691 24.053692 13.744966 0 24.053691-10.308725 24.053691-24.053692v-30.926174c0-61.852349-54.979866-116.832215-113.395973-116.832215H233.66443C171.812081 202.738255 116.832215 257.718121 116.832215 319.57047v364.241611c0 61.852349 54.979866 116.832215 113.395973 116.832214h309.261745c13.744966 0 24.053691-10.308725 24.053691-24.053691 3.436242-17.181208-6.872483-27.489933-20.61745-27.489933z m271.463088-298.95302c-99.651007 0-182.120805 85.90604-182.120806 185.557047 0 103.087248 82.469799 185.557047 182.120806 185.557047s182.120805-85.90604 182.120805-185.557047c3.436242-99.651007-79.033557-185.557047-182.120805-185.557047z m0 323.006711c-72.161074 0-134.013423-61.852349-134.013423-137.449664s61.852349-137.449664 134.013423-137.449664c72.161074 0 134.013423 61.852349 134.013423 137.449664 3.436242 75.597315-58.416107 137.449664-134.013423 137.449664z m109.959731-192.42953c-10.308725-10.308725-24.053691-10.308725-34.362416 0l-85.90604 85.90604-51.543624-51.543624c-10.308725-10.308725-24.053691-10.308725-34.362416 0-10.308725 10.308725-10.308725 24.053691 0 34.362416l68.724832 68.724833c10.308725 10.308725 24.053691 10.308725 34.362416 0l103.087248-103.087249c10.308725-10.308725 10.308725-24.053691 0-34.362416z m-250.845637-206.174496c0-13.744966-10.308725-24.053691-24.053692-24.053692h-216.483221c-13.744966 0-24.053691 10.308725-24.053691 24.053692 0 13.744966 10.308725 24.053691 24.053691 24.053691H652.885906c10.308725 0 20.61745-10.308725 20.61745-24.053691z m-329.879195 24.053691h17.181208c13.744966 0 24.053691-10.308725 24.053691-24.053691 0-13.744966-10.308725-24.053691-24.053691-24.053692H343.624161c-13.744966 0-24.053691 10.308725-24.053691 24.053692 0 13.744966 10.308725 24.053691 24.053691 24.053691z m-3.436242 123.704698h216.483222c13.744966 0 24.053691-10.308725 24.053691-24.053691 0-13.744966-10.308725-24.053691-24.053691-24.053692H340.187919c-13.744966 0-24.053691 10.308725-24.053691 24.053692 0 13.744966 10.308725 24.053691 24.053691 24.053691z m-51.543624-20.61745c0-13.744966-10.308725-24.053691-24.053691-24.053691h-17.181208c-13.744966 0-24.053691 10.308725-24.053691 24.053691 0 13.744966 10.308725 24.053691 24.053691 24.053691h17.181208c13.744966-3.436242 24.053691-13.744966 24.053691-24.053691z m298.95302 103.087248h-216.483221c-13.744966 0-24.053691 10.308725-24.053691 24.053692s10.308725 24.053691 24.053691 24.053691h216.483221c13.744966 0 24.053691-10.308725 24.053692-24.053691s-10.308725-24.053691-24.053692-24.053692z m-309.261745 48.107383h17.181209c13.744966 0 24.053691-10.308725 24.053691-24.053691s-10.308725-24.053691-24.053691-24.053692h-17.181209c-13.744966 0-24.053691 10.308725-24.053691 24.053692s13.744966 24.053691 24.053691 24.053691z" fill="#2c2c2c" p-id="3510"></path></svg>