<?xml version="1.0" standalone="no"?><!DOCTYPE svg PUBLIC "-//W3C//DTD SVG 1.1//EN" "http://www.w3.org/Graphics/SVG/1.1/DTD/svg11.dtd"><svg t="1513834006225" class="icon" style="" viewBox="0 0 1024 1024" version="1.1" xmlns="http://www.w3.org/2000/svg" p-id="6724" xmlns:xlink="http://www.w3.org/1999/xlink" width="200" height="200"><defs><style type="text/css"></style></defs><path d="M920.416342 818.287825l-80.101339 0 0-78.18264c0-6.200212-5.1503-11.252275-11.532661-11.252275l-29.979802 0c-6.338359 0-11.481496 5.053086-11.481496 11.252275l0 78.18264L707.210495 818.287825c-6.380314 0-11.532661 5.021364-11.532661 11.271718l0 29.248138c0 6.235005 5.151323 11.252275 11.532661 11.252275l80.111572 0 0 78.202083c0 6.182816 5.142114 11.253298 11.481496 11.253298l29.979802 0c6.381337 0 11.532661-5.070482 11.532661-11.253298L840.316026 870.058932 920.416342 870.058932c6.381337 0 11.533684-5.01727 11.533684-11.252275l0-29.248138C931.950026 823.309188 926.797679 818.287825 920.416342 818.287825L920.416342 818.287825zM803.996842 666.647149c13.712303-14.633279 12.983709-37.631062-1.689479-51.395554-41.37227-38.779212-89.445148-68.355831-141.439336-87.681992 65.478294-46.242184 108.268866-122.481565 108.268866-208.55492 0-140.756791-114.508987-255.226892-255.266801-255.226892-140.740418 0-255.226892 114.469078-255.226892 255.226892 0 86.122473 42.857087 162.402787 108.358917 208.655204-160.393014 59.776432-274.952142 214.486002-274.952142 395.427004 0 20.093641 16.288988 36.417421 36.360116 36.417421s36.368302-16.32378 36.368302-36.417421c0-189.422164 151.649885-344.114338 339.930039-349.003695 3.051499 0.098237 6.110161 0.196475 9.16166 0.196475s6.102998-0.099261 9.112542-0.196475c85.664032 2.198062 166.913521 35.465746 229.611491 94.242408C767.224334 682.050977 790.281469 681.279405 803.996842 666.647149L803.996842 666.647149zM521.702478 501.373988c-2.592035-0.049119-5.192256-0.090051-7.833409-0.090051-2.550079 0-5.101181 0.040932-7.66047 0.090051-97.096409-4.051269-174.835957-84.251869-174.835957-182.358281 0-100.656491 81.857333-182.497451 182.497451-182.497451 100.656491 0 182.539406 81.84096 182.539406 182.497451C696.408475 417.031045 618.717022 497.2736 521.702478 501.373988L521.702478 501.373988zM521.702478 501.373988" fill="#2c2c2c" p-id="6725"></path></svg>