<?xml version="1.0" standalone="no"?><!DOCTYPE svg PUBLIC "-//W3C//DTD SVG 1.1//EN" "http://www.w3.org/Graphics/SVG/1.1/DTD/svg11.dtd"><svg t="1513834032019" class="icon" style="" viewBox="0 0 1024 1024" version="1.1" xmlns="http://www.w3.org/2000/svg" p-id="7420" xmlns:xlink="http://www.w3.org/1999/xlink" width="200" height="200"><defs><style type="text/css"></style></defs><path d="M689.1 836.3c-3.5 0-7-0.8-10.1-2.4-61.2-30.5-102.7-67.2-123.2-109-15.7-31.8-13.4-55.3-12.8-60-0.3-10 3.9-43 25.8-65 14.1-14.2 32.5-21.4 54.5-21.4 32.8 0 53.8 15.5 65.8 28.9 12.1-13.2 33.1-28.6 65-28.9 22.9 0 41.8 7.4 56.3 21.9 18.5 18.5 25 44.7 25 63 0.7 31.9-10.7 62.7-33.9 91.6-22.8 28.4-57.1 54.8-101.8 78.5-3.2 1.9-6.9 2.8-10.6 2.8zM623.3 624c-9.7 0-17 2.6-22.4 8-9.8 9.8-12.9 28.5-12.8 36v0.6c-1.1 10.4-1.2 65 100.7 119.3 66.3-37.4 102.3-80.9 101.3-122.3 0-3.8-0.6-13.6-4.7-22.8-5.7-12.5-15.8-18.9-30.2-18.9-33.4 0.3-43.7 31.5-44.7 35.1-2.5 9-10.8 15.3-21.7 16.5h-0.6c-10.4-0.2-19.2-7.4-21.6-17.4-1-3.5-9.4-34.1-43.3-34.1zM211.2 834.7c-12.5 0-22.7-10.2-22.7-22.7 0-52.5 22.7-107.6 64-155.2 37.4-43.1 87.6-77.5 141.7-97-28-16.3-51.8-39.3-69-66.7-19.9-31.7-30.5-68.3-30.5-105.8 0-110.1 89.6-199.6 199.6-199.6 110.1 0 199.6 89.6 199.6 199.6C694 497.4 604.4 587 494.3 587c-61.5 0-126.6 25.9-178.7 71.1-51.9 45-81.7 101.1-81.7 154 0 12.4-10.1 22.6-22.7 22.6z m283.1-601.6c-85.1 0-154.2 69.2-154.2 154.2 0 85.1 69.2 154.2 154.2 154.2 85.1 0 154.2-69.2 154.2-154.2 0.1-85-69.1-154.2-154.2-154.2z" p-id="7421" fill="#2c2c2c"></path></svg>