<?xml version="1.0" standalone="no"?><!DOCTYPE svg PUBLIC "-//W3C//DTD SVG 1.1//EN" "http://www.w3.org/Graphics/SVG/1.1/DTD/svg11.dtd"><svg t="1513833953166" class="icon" style="" viewBox="0 0 1024 1024" version="1.1" xmlns="http://www.w3.org/2000/svg" p-id="6067" xmlns:xlink="http://www.w3.org/1999/xlink" width="200" height="200"><defs><style type="text/css"></style></defs><path d="M842.752 624.64c0-17.408 14.336-31.744 31.744-31.744s31.744 14.336 31.744 31.744v204.8c0 63.488-52.224 114.688-115.712 114.688H244.736c-63.488 0-115.712-52.224-115.712-114.688V624.64c0-17.408 14.336-31.744 31.744-31.744 17.408 0 31.744 14.336 31.744 31.744v204.8c0 28.672 22.528 51.2 51.2 51.2h546.816c28.672 0 51.2-22.528 51.2-51.2V624.64z m-24.576-365.568H663.552h-3.072c-22.528-1.024-49.152 1.024-74.752 8.192-17.408 5.12-32.768 13.312-43.008 23.552-11.264 10.24-20.48 25.6-26.624 43.008-9.216 25.6-12.288 52.224-11.264 71.68v187.392c0 16.384-13.312 30.72-30.72 30.72-16.384 0-30.72-13.312-30.72-30.72v-184.32-2.048c0-9.216 0-20.48 2.048-33.792 2.048-20.48 6.144-40.96 13.312-60.416 9.216-26.624 23.552-49.152 43.008-66.56 18.432-17.408 40.96-28.672 67.584-36.864 32.768-10.24 66.56-12.288 95.232-10.24h159.744L727.04 98.304c-11.264-12.288-11.264-31.744 1.024-43.008 12.288-11.264 31.744-11.264 43.008 1.024l146.432 151.552c11.264 12.288 11.264 31.744-1.024 43.008L756.736 403.456c-12.288 11.264-31.744 11.264-43.008-1.024s-11.264-31.744 1.024-43.008l103.424-100.352z" p-id="6068"></path></svg>