<?xml version="1.0" standalone="no"?><!DOCTYPE svg PUBLIC "-//W3C//DTD SVG 1.1//EN" "http://www.w3.org/Graphics/SVG/1.1/DTD/svg11.dtd"><svg t="1514313089401" class="icon" style="" viewBox="0 0 1024 1024" version="1.1" xmlns="http://www.w3.org/2000/svg" p-id="3888" xmlns:xlink="http://www.w3.org/1999/xlink" width="200" height="200"><defs><style type="text/css"></style></defs><path d="M708.4 109.8c-97 0-166.5 87.4-196.4 133.6-30-46.2-99.4-133.6-196.4-133.6-139.2 0-252.4 125.4-252.4 279.6 0 72.1 48.9 175.4 108.2 229.5 82.1 105.5 312.9 295.4 341.4 295.4 29 0 254.8-186.2 338.4-294.1 60.4-55 109.5-158.5 109.5-230.8 0.1-154.2-113.1-279.6-252.3-279.6z m192.9 279.6c0 57.6-41.8 143.7-91.3 187.8-1.4 1.2-2.6 2.6-3.8 4.1C732.6 677.1 584.6 796 513 848c-53.2-38.9-213.4-160.3-295.7-267.1-1.1-1.5-2.4-2.8-3.8-4.1-49.3-44.1-90.9-129.9-90.9-187.5 0-121.3 86.5-220.1 192.9-220.1 68.6 0 134.6 74.2 169.6 147.8 4.6 9.7 14.9 15.8 26.8 15.8s22.2-6.1 26.9-15.8c35-73.6 100.9-147.8 169.5-147.8 106.5 0.1 193 98.8 193 220.2z" p-id="3889"></path></svg>