<?xml version="1.0" standalone="no"?><!DOCTYPE svg PUBLIC "-//W3C//DTD SVG 1.1//EN" "http://www.w3.org/Graphics/SVG/1.1/DTD/svg11.dtd"><svg t="1514178760319" class="icon" style="" viewBox="0 0 1024 1024" version="1.1" xmlns="http://www.w3.org/2000/svg" p-id="1002" xmlns:xlink="http://www.w3.org/1999/xlink" width="200" height="200"><defs><style type="text/css"></style></defs><path d="M363.076202 946.06807l376.889813-5.349845 0.181125-0.110517c9.269108-5.65786 40.729633-26.285666 56.4425-54.191226 34.134425-60.60224 83.560114-155.904793 125.175931-265.764899 30.142507-79.582523 34.82925-139.966799 13.931291-179.477674-12.989849-24.561395-36.344766-41.043788-69.414953-48.985668-10.857279-2.607384-31.013341-3.929496-59.909461-3.929496-42.088584 0-90.935082 2.90312-113.163339 4.617158l-33.329083 2.566452 3.545756-33.235962c14.673188-137.53747 22.526039-237.713007-10.263761-274.188756-11.097756-12.341073-28.377304-18.088984-54.383608-18.088984-21.010523 0-36.540218 5.381567-47.476291 16.45374-26.886347 27.220968-26.14445 86.950328-25.65224 126.473483 0.115634 9.086959 0.23536 18.48398-0.028653 26.343995-2.729158 79.46075-52.111868 142.423757-142.81159 182.080965-41.724287 18.23634-83.427084 27.371394-104.57166 31.19242l-0.641613 0.116657 0 548.929074L86.546122 1001.518986c-36.639478 0-66.447365-29.80891-66.447365-66.451458L20.098757 467.26003c0-36.642548 29.807886-66.453505 66.447365-66.453505l161.65475 0c6.134721-0.728594 60.633962-7.732102 113.006773-30.768771 70.258157-30.896684 106.877169-75.556836 108.838847-132.739187 0.217964-6.332219 0.124843-14.179954 0.016373-23.267936l-0.005117-0.475837C469.446835 164.776857 468.524836 91.066065 511.741104 47.309492c21.617343-21.88545 50.901297-32.983205 87.036285-32.983205 42.329061 0 73.643254 11.946077 95.729272 36.520775 23.445992 26.074865 35.136242 65.73412 36.787858 124.809587 1.251503 44.754297-2.720971 95.818299-9.071609 158.718885l-0.091074 0.907673 0.910743-0.051165c21.046339-1.168616 52.382021-2.561335 82.146928-2.561335 34.093493 0 59.015092 1.832741 74.075089 5.449106 48.589648 11.673877 85.10019 38.319747 105.585757 77.05598 28.690436 54.249555 24.958438 130.006959-11.095709 225.169319-42.837644 113.093754-93.64275 211.072253-128.718617 273.350668-27.992541 49.703005-82.383312 78.205153-84.683704 79.394235l-5.813403 3.02387-390.676817 5.554506L363.076202 946.06807zM86.546122 456.407867c-5.980201 0-10.846022 4.865821-10.846022 10.846022l0 467.814662c0 5.980201 4.865821 10.846022 10.846022 10.846022l135.442762 0L221.988884 456.407867 86.546122 456.407867z" p-id="1003"></path></svg>