<?xml version="1.0" standalone="no"?><!DOCTYPE svg PUBLIC "-//W3C//DTD SVG 1.1//EN" "http://www.w3.org/Graphics/SVG/1.1/DTD/svg11.dtd"><svg t="1514313053788" class="icon" style="" viewBox="0 0 1024 1024" version="1.1" xmlns="http://www.w3.org/2000/svg" p-id="3227" xmlns:xlink="http://www.w3.org/1999/xlink" width="200" height="200"><defs><style type="text/css"></style></defs><path d="M807.726793 376.280946 281.090445 67.557652c-13.427824-7.268544-48.493457-24.297382-83.309404-4.762467C162.97635 82.315774 165.216367 117.256564 165.216367 133.602857l0 648.351458c0 10.894118-4.321422 55.606459 44.828998 71.266114 49.130977 15.665795 62.399165-2.270716 71.046103-5.218862l547.038004-318.933843c18.428721-10.899234 30.750351-24.978904 30.750351-74.019831C858.8788 406.02027 824.333006 388.085806 807.726793 376.280946zM787.475564 455.047894c-1.704828 19.440771-2.121314 22.320355-20.552082 33.216519L342.306668 735.791949c-8.65717 2.945075-87.673805 44.638663-105.673761 32.092929-16.107863-11.233855-10.211573-36.240389-10.211573-47.134507L226.421334 205.009164c0-16.347317-3.087315-63.470567 12.164041-70.807672 16.407692-7.899924 62.45954 32.440853 103.721293 55.765071l424.616814 237.316987C783.531741 439.08841 788.789489 439.95515 787.475564 455.047894z" p-id="3228"></path></svg>