<?xml version="1.0" standalone="no"?><!DOCTYPE svg PUBLIC "-//W3C//DTD SVG 1.1//EN" "http://www.w3.org/Graphics/SVG/1.1/DTD/svg11.dtd"><svg t="1514181155298" class="icon" style="" viewBox="0 0 1024 1024" version="1.1" xmlns="http://www.w3.org/2000/svg" p-id="1818" xmlns:xlink="http://www.w3.org/1999/xlink" width="200" height="200"><defs><style type="text/css"></style></defs><path d="M1002.893592 452.197377l-69.076827-85.706434c-10.873204-14.071205-17.908807-30.700812-19.827608-49.249219l-12.152405-108.732043a96.579638 96.579638 0 0 0-85.066833-85.066833l-108.732043-12.152405c-19.188007-1.918801-35.817614-10.233604-49.888819-21.106808L572.442623 21.106808c-35.178014-28.142411-85.066833-28.142411-120.244847 0L366.491343 90.183635c-14.071205 10.873204-30.700812 17.908807-49.249219 19.827608l-108.732043 12.152405c-44.772017 5.116802-79.950031 40.294816-85.066833 85.066833l-12.152405 108.732042c-1.918801 19.188007-10.233604 35.817614-21.106808 49.88882L21.107208 451.557776c-28.142411 35.178014-28.142411 85.066833 0 120.244847l69.076827 85.706434c10.873204 14.071205 17.908807 30.700812 19.827608 49.249219l12.152404 108.732043c5.116802 44.772017 40.294816 79.950031 85.066834 85.066833l108.732042 12.152405c19.188007 1.918801 35.817614 10.233604 49.88882 21.106808l85.706433 69.076827c35.178014 28.142411 85.066833 28.142411 120.244847 0l85.706434-69.076827c14.071205-10.873204 30.700812-17.908807 49.249219-19.827608l108.732042-12.152405c44.772017-5.116802 79.950031-40.294816 85.066834-85.066833l12.152404-108.732042c1.918801-19.188007 10.233604-35.817614 21.106809-49.88882l69.076827-85.706433c28.142411-35.178014 28.142411-85.066833 0-120.244847zM416.380162 768.1599L192.520075 544.299813 288.460112 448.359775l127.92005 127.92005 319.800125-319.800125L832.120325 355.617739 416.380162 768.1599z" fill="#1296db" p-id="1819"></path></svg>