<?xml version="1.0" standalone="no"?><!DOCTYPE svg PUBLIC "-//W3C//DTD SVG 1.1//EN" "http://www.w3.org/Graphics/SVG/1.1/DTD/svg11.dtd"><svg t="1514445934451" class="icon" style="" viewBox="0 0 1024 1024" version="1.1" xmlns="http://www.w3.org/2000/svg" p-id="5015" xmlns:xlink="http://www.w3.org/1999/xlink" width="200" height="200"><defs><style type="text/css"></style></defs><path d="M897.208131 22.900907 121.682371 22.900907C64.501704 22.900907 18.445056 69.070747 18.445056 126.01569l0 724.063792c0 56.982299 46.205986 103.116859 103.237315 103.116859l775.525847 0c57.185942 0 103.215783-46.188087 103.215783-103.116859L1000.424001 126.01569C1000.423915 69.033564 954.191122 22.900907 897.208131 22.900907zM948.738933 850.079482c0 28.466721-22.964205 51.434038-51.530801 51.434038L121.682371 901.51352c-28.511341 0-51.55216-23.01825-51.55216-51.434038L70.130211 126.01569c0-28.464386 22.959449-51.434557 51.55216-51.434557l775.525847 0c28.464559 0 51.530801 23.018077 51.530801 51.434557L948.739019 850.079482z" p-id="5016" fill="#fb7299"></path><path d="M256.489133 654.362745l-118.041179-301.426478c-1.405181-5.62107-2.107858-11.944731-2.107858-18.970983 1.405181-23.889203 14.755093-37.239115 40.04965-40.04965 15.45777 1.405181 27.402415 10.539377 35.833934 27.402415l84.315103 223.435036 82.207245-223.435036c9.836787-18.268219 22.484108-27.402415 37.941792-27.402415 25.294557 2.810535 39.346973 16.160447 42.157508 40.04965-1.405268 7.026251-2.810535 13.349912-4.215716 18.970983l-118.041179 301.426478c-9.836787 18.268305-23.186699 27.402501-40.04965 27.402501C276.865383 681.765247 263.515471 672.631051 256.489133 654.362745z" p-id="5017" fill="#fb7299"></path><path d="M479.924255 643.823368l0-307.750226c0-26.699651 13.349912-40.752327 40.04965-42.157508 25.29447 1.405181 38.644296 15.457857 40.049477 42.157508l0 307.750226c-1.405181 25.294557-14.755093 37.941792-40.049477 37.941792C493.274168 681.765247 479.924255 669.117925 479.924255 643.823368z" p-id="5018" fill="#fb7299"></path><path d="M608.504725 644.239821 608.504725 340.705398c0-26.699824 13.349912-40.752327 40.04965-42.157681l96.962425 0c85.720457 5.62107 131.391005 48.481256 137.012075 128.580642-5.62107 80.099387-50.589027 122.959659-134.90413 128.580556l-59.020633 0 0 88.530992c-1.405354 25.29447-14.755093 37.941706-40.04965 37.941706C621.854637 682.181526 608.504725 669.534291 608.504725 644.239821zM688.604112 370.215584l0 113.825376 54.804743 0c33.726076-1.405268 51.994381-20.376164 54.804916-56.912688-2.810535-35.131343-21.078927-54.102153-54.804916-56.912688L688.604112 370.215584z" p-id="5019" fill="#fb7299"></path></svg>